<?xml version="1.0" encoding="iso-8859-1"?>
<!-- Generator: Adobe Illustrator 18.0.0, SVG Export Plug-In . SVG Version: 6.00 Build 0)  -->
<!DOCTYPE svg PUBLIC "-//W3C//DTD SVG 1.1//EN" "http://www.w3.org/Graphics/SVG/1.1/DTD/svg11.dtd">
<svg xmlns="http://www.w3.org/2000/svg" xmlns:xlink="http://www.w3.org/1999/xlink" version="1.1" id="Capa_1" x="0px" y="0px" viewBox="0 0 297 297" style="enable-background:new 0 0 297 297;" xml:space="preserve" width="512px" height="512px">
<g>
	<path d="M127.01,128.898c4.129,0,9.009-1.259,12.84-4.425c2.591-2.14,4.65-2.21,4.65-2.21v-0.012l8.572,0.012   c0.083,0,2.106,0.063,4.695,2.202c3.833,3.166,8.752,4.419,12.881,4.419c1.512-0.002,2.922-0.169,4.133-0.472   c4.146-1.038,6.697-5.247,5.66-9.394c-1.038-4.146-5.201-6.665-9.347-5.635c-0.68,0.12-2.513,0.162-3.457-0.617   c-7.348-6.069-13.934-6.021-15.5-5.475c-1.56,0.545-5.047,0.544-6.608,0c-1.566-0.547-8.153-0.594-15.501,5.476   c-0.942,0.778-2.776,0.854-3.39,0.75c-4.146-1.039-8.347,1.423-9.383,5.569c-1.038,4.145,1.481,8.317,5.627,9.354   C124.091,128.745,125.499,128.898,127.01,128.898z" fill="#d6b983"/>
	<path d="M214.344,173.5H190.5v-25.913c5-5.087,9.116-11.068,12.614-17.852c7.629-1.308,14.8-8.956,18.777-20.227   c5.021-14.234,1.609-26.965-6.391-30.865v-2.886c0-4.574,3.104-34.536-15.421-55.622C188.34,6.774,171.131,0,148.735,0   c-22.395,0-39.717,6.775-51.28,20.138C79.249,41.174,81.5,71.035,82.5,75.811v2.363c0,0,0.148,0.002,0.145,0.002   c-9.491,3.357-12.523,16.521-7.311,31.302c4.039,11.443,11.403,19.155,19.146,20.296c3.679,7.123,8.021,13.356,13.021,18.602V173.5   H83.322c-29.297,0-53.822,23.653-53.822,52.95v37.655c0,3.001,2.08,5.729,4.796,7.004C76.404,290.877,116.28,297.001,149.318,297   c17.391,0,33.025-1.697,46.097-3.996c41.17-7.237,67.005-21.548,68.083-22.153c2.438-1.37,4.002-3.949,4.002-6.745V226.45   C267.5,197.153,243.641,173.5,214.344,173.5z M122.5,181.057v-20.523c8,4.434,16.979,6.804,26.126,6.804   c9.433,0,18.874-2.522,26.874-7.225v20.944c0,1.975,0.824,3.771,2.04,5.138c-1.927,14.168-14.058,25.125-28.747,25.125   c-14.387,0-26.609-10.511-28.906-24.256C121.634,185.645,122.5,183.482,122.5,181.057z M109.418,30.195   c8.494-9.768,21.755-14.721,39.415-14.721c17.705,0,31.081,4.98,39.753,14.804c10.517,11.91,12.159,28.523,12.184,37.558   l-7.716,4.949c-2.638-8.677-10.707-14.918-20.234-14.918c-10.429,0-19.097,7.633-20.817,17.633h-6.338   c-1.721-10-10.389-17.633-20.817-17.633c-9.681,0-17.843,6.499-20.344,15.392l-6.664-4.299   C97.588,60.264,98.605,42.629,109.418,30.195z M185.715,78.922c0,7.111-5.785,12.896-12.895,12.896   c-7.111,0-12.896-5.785-12.896-12.896c0-7.11,5.784-12.896,12.896-12.896C179.93,66.026,185.715,71.812,185.715,78.922z    M137.742,78.922c0,7.111-5.784,12.896-12.896,12.896c-7.11,0-12.896-5.785-12.896-12.896c0-7.11,5.785-12.896,12.896-12.896   C131.958,66.026,137.742,71.812,137.742,78.922z M97.833,79.027l6.106,3.369c1.779,9.874,10.474,17.643,20.852,17.643   c10.064,0,18.552-7.539,20.675-16.539h6.734c2.123,9,10.554,16.539,20.619,16.539c10.55,0,19.45-7.757,21.026-17.871l6.655-4.299   v7.81c0,2.639,0.956,5.137,3.136,6.628c1.613,1.104,3.564,1.545,5.449,1.276c0.329,2.031,0.303,5.849-1.434,10.775   c-2.077,5.887-5.084,8.995-6.459,9.894c-1.6-0.531-3.345-0.528-4.962,0.029c-2.029,0.7-3.674,2.211-4.546,4.172   c-9.298,20.919-25.264,33.409-42.708,33.409c-17.47,0-33.453-12.537-42.756-33.537c-0.9-2.033-2.633-3.58-4.754-4.247   c-0.76-0.238-1.541-0.356-2.321-0.356c-0.926,0-1.847,0.166-2.718,0.493c-1.388-0.929-4.359-4.041-6.423-9.886   c-1.752-4.97-1.754-8.815-1.409-10.843c2.038,0.469,4.202,0.093,5.984-1.081c2.071-1.365,3.127-3.631,3.246-6.083L97.833,79.027z    M251.5,259.368c-8,4.035-29.392,13.188-59.012,18.396c-34.832,6.123-87.988,7.711-146.988-18.623v-32.69   c0-20.764,17.06-37.95,37.822-37.95h21.461c3.17,22,21.713,38,44.05,38s40.88-16,44.05-38h21.461   c20.763,0,37.156,17.186,37.156,37.95V259.368z" fill="#d6b983"/>
	<path d="M148,239.861c-4.273,0-7.5,3.464-7.5,7.738v6.189c0,4.273,3.227,7.737,7.5,7.737c4.273,0,7.5-3.464,7.5-7.737V247.6   C155.5,243.325,152.273,239.861,148,239.861z" fill="#d6b983"/>
</g>
<g>
</g>
<g>
</g>
<g>
</g>
<g>
</g>
<g>
</g>
<g>
</g>
<g>
</g>
<g>
</g>
<g>
</g>
<g>
</g>
<g>
</g>
<g>
</g>
<g>
</g>
<g>
</g>
<g>
</g>
</svg>
