<?xml version="1.0" encoding="iso-8859-1"?>
<!-- Generator: Adobe Illustrator 19.0.0, SVG Export Plug-In . SVG Version: 6.00 Build 0)  -->
<svg xmlns="http://www.w3.org/2000/svg" xmlns:xlink="http://www.w3.org/1999/xlink" version="1.1" id="Capa_1" x="0px" y="0px" viewBox="0 0 386.631 386.631" style="enable-background:new 0 0 386.631 386.631;" xml:space="preserve" width="512px" height="512px">
<g>
	<g>
		<path d="M381.605,108.136c-2.96-29.56-17.6-55.52-47.24-64.56c-33.92-10.28-70.12-11.8-106.28-13.24    c-30.76-1.04-61.76-2.48-90.24-9.32l-84.52-20.44h-0.32C42.032-2.074,30.988,4.672,28.337,15.645    c-0.004,0.017-0.008,0.034-0.012,0.051l-23.2,95.44c-2.632,10.967,4.116,21.994,15.08,24.64l84.88,20.44h0.24    c28.4,6.84,56.44,20,84.52,32.8c7.8,3.6,15.6,7.2,23.4,10.68l-2.88,12l-9.76-2.4c-15.572-3.737-31.229,5.837-35,21.4v0.36    l-3,12.48c-3.737,15.571,5.837,31.229,21.4,35h0.36l9.4,2.28l-13.48,55.76v0.32c-5.106,21.26,7.646,42.72,28.76,48.4    c0.545,0.191,1.108,0.325,1.68,0.4c21.078,4.598,42.045-8.194,47.6-29.04c0.188-0.532,0.322-1.081,0.4-1.64l31.2-129.44h0.56h0.84    c30.12,5,54.72-11.32,70.72-36.28C377.147,165.06,384.008,136.591,381.605,108.136z M101.045,137.896l-76.88-18.52    c-0.916-0.221-1.707-0.797-2.2-1.6c-0.502-0.812-0.66-1.791-0.44-2.72l23.04-95.52c0.227-0.903,0.802-1.68,1.6-2.16    c0.8-0.495,1.764-0.653,2.68-0.44h0.36l76.52,18.48L101.045,137.896z M188.245,262.296h-0.32c-6.5-1.617-10.493-8.159-8.96-14.68    l3-12.44v-0.32c1.617-6.5,8.159-10.493,14.68-8.96l9.72,2.36l-8,32.8l-0.88,3.6L188.245,262.296z M242.165,351.896    c-3.043,12.586-15.674,20.357-28.28,17.4h-0.32c-12.289-3.223-19.81-15.61-17-28v-0.36l15.4-64l12.72-52.8l4-17.24    c14.513,6.054,29.429,11.093,44.64,15.08L242.165,351.896z M268.245,202.896c-24.408-8.09-48.236-17.832-71.32-29.16    c-26.12-12-52.28-24-79.52-31.72l12.4-51.4l12.36-51.36c27.68,5.68,56.44,6.84,85.28,8c26.167,0.415,52.271,2.674,78.12,6.76    C311.125,67.256,338.725,143.616,268.245,202.896z M361.965,146.616c-2.822,11.971-7.607,23.392-14.16,33.8    c-12.56,19.56-31.28,32.48-53.68,28.8h-0.64l-5.56-1.08c57.8-55.44,45.92-121.56,37.2-149.52l4.4,1.28    c22.04,6.72,33.04,26.92,35.32,50.24C365.891,122.372,364.918,134.696,361.965,146.616z" fill="#d6b983"/>
	</g>
</g>
<g>
</g>
<g>
</g>
<g>
</g>
<g>
</g>
<g>
</g>
<g>
</g>
<g>
</g>
<g>
</g>
<g>
</g>
<g>
</g>
<g>
</g>
<g>
</g>
<g>
</g>
<g>
</g>
<g>
</g>
</svg>
