<?xml version="1.0" encoding="iso-8859-1"?>
<!-- Generator: Adobe Illustrator 19.0.0, SVG Export Plug-In . SVG Version: 6.00 Build 0)  -->
<svg xmlns="http://www.w3.org/2000/svg" xmlns:xlink="http://www.w3.org/1999/xlink" version="1.1" id="Capa_1" x="0px" y="0px" viewBox="0 0 402.72 402.72" style="enable-background:new 0 0 402.72 402.72;" xml:space="preserve" width="512px" height="512px">
<g>
	<g>
		<path d="M294.26,20.04c-4.844-0.009-9.604,1.26-13.8,3.68c-1.924-4.389-4.635-8.388-8-11.8l-0.48-0.52    C264.714,4.102,254.839,0,244.54,0h-86.48c-15.586,0.059-29.644,9.384-35.76,23.72c-3.939-2.264-8.378-3.515-12.92-3.64h-0.92    c-7.097-0.034-13.933,2.674-19.08,7.56l-0.56,0.52c-5.15,5.188-8.028,12.21-8,19.52v307.48c-0.021,7.297,2.856,14.304,8,19.48    l0.2,0.04c5.176,5.144,12.183,8.021,19.48,8c4.843,0.007,9.603-1.262,13.8-3.68c6.108,14.343,20.171,23.671,35.76,23.72h86.64    c10.051-0.008,19.704-3.924,26.92-10.92l0.52-0.48c3.536-3.536,6.361-7.719,8.32-12.32c3.923,2.272,8.349,3.536,12.88,3.68h0.92    c15.247-0.044,27.596-12.393,27.64-27.64V47.68C321.834,32.442,309.498,20.106,294.26,20.04z M304.98,355.12    c-0.022,5.911-4.809,10.698-10.72,10.72h-0.56c-2.639-0.138-5.133-1.25-7-3.12c-2.006-2.004-3.129-4.725-3.12-7.56    c0.321-4.672-3.206-8.721-7.878-9.042c-4.672-0.321-8.721,3.206-9.042,7.878c-0.027,0.388-0.027,0.776,0,1.164v8.8    c-0.002,5.811-2.319,11.382-6.44,15.48l-0.36,0.4c-4.065,3.905-9.484,6.084-15.12,6.08h-86.68    c-12.088-0.044-21.876-9.832-21.92-21.92v-8.8c0.321-4.672-3.206-8.721-7.878-9.042c-4.672-0.321-8.721,3.206-9.042,7.878    c-0.027,0.388-0.027,0.777,0,1.164c-0.052,5.685-4.486,10.364-10.16,10.72h-0.56c-5.92,0-10.72-4.799-10.72-10.72l0.04-0.04V47.68    c0.006-2.84,1.143-5.56,3.16-7.56l0.4-0.32c1.973-1.82,4.556-2.833,7.24-2.84h0.56c2.639,0.138,5.133,1.25,7,3.12    c2.017,2,3.154,4.72,3.16,7.56c0.321,4.672,4.37,8.199,9.042,7.878c4.225-0.291,7.587-3.653,7.878-7.878v-8.8    c0.044-12.088,9.832-21.876,21.92-21.92h86.52c5.811,0.002,11.382,2.319,15.48,6.44l0.4,0.36c3.905,4.064,6.084,9.484,6.08,15.12    v8.8c0.321,4.672,4.37,8.199,9.042,7.878c4.225-0.291,7.587-3.653,7.878-7.878c0.052-5.685,4.486-10.364,10.16-10.72h0.52    c5.921,0,10.72,4.799,10.72,10.72V355.12z" fill="#d6b983"/>
	</g>
</g>
<g>
	<g>
		<path d="M234.86,219.88c9.566-10.479,9.566-26.521,0-37c-3.271-3.72-7.239-6.764-11.68-8.96v-10.48h0.52    c4.325-0.017,8.53-1.419,12-4c3.918-2.747,6.271-7.215,6.32-12v-33.16c-0.055-4.783-2.407-9.248-6.32-12    c-3.47-2.581-7.675-3.983-12-4h-0.52V93.4c4.441-2.195,8.409-5.239,11.68-8.96c4.583-5.086,7.145-11.674,7.2-18.52    c-0.209-9.464-4.919-18.26-12.68-23.68c-16.723-11.632-38.917-11.632-55.64,0c-7.844,5.401-12.62,14.239-12.84,23.76    c0.055,6.846,2.617,13.435,7.2,18.52c3.22,3.671,7.118,6.686,11.48,8.88v5h-0.52c-4.325,0.017-8.53,1.419-12,4    c-3.903,2.756-6.24,7.222-6.28,12v33.32c0.055,4.783,2.407,9.248,6.32,12c3.47,2.581,7.675,3.983,12,4h0.52v10.48    c-4.441,2.196-8.409,5.24-11.68,8.96c-9.566,10.479-9.566,26.521,0,37c3.271,3.721,7.239,6.765,11.68,8.96v10.48h-0.52    c-4.325,0.017-8.53,1.419-12,4c-3.913,2.752-6.265,7.217-6.32,12v33.32c0.055,4.783,2.407,9.248,6.32,12    c3.471,2.579,7.676,3.98,12,4h0.52v4.48c-4.448,2.168-8.429,5.184-11.72,8.88c-4.583,5.086-7.145,11.674-7.2,18.52    c0.19,9.491,4.901,18.319,12.68,23.76c16.723,11.632,38.917,11.632,55.64,0c7.839-5.406,12.614-14.24,12.84-23.76    c-0.055-6.846-2.617-13.434-7.2-18.52c-3.219-3.672-7.117-6.687-11.48-8.88v-5.08h0.52c4.324-0.02,8.529-1.421,12-4    c3.913-2.752,6.265-7.217,6.32-12V255.2c-0.055-4.783-2.407-9.248-6.32-12c-3.47-2.581-7.675-3.983-12-4h-0.52v-10.36    C227.621,226.644,231.589,223.6,234.86,219.88z M214.7,255.92C214.7,255.92,214.7,255.92,214.7,255.92h9    c0.475-0.013,0.948,0.055,1.4,0.2v30.68c-0.449,0.163-0.923,0.244-1.4,0.24h-9c-4.683,0-8.48,3.797-8.48,8.48c0,0,0,0,0,0v19.04    c0.001,3.627,2.32,6.848,5.76,8c3.927,1.328,7.423,3.691,10.12,6.84c1.865,2.037,2.931,4.679,3,7.44    c-0.279,4.156-2.503,7.937-6,10.2c-10.726,7.121-24.674,7.121-35.4,0c-3.497-2.263-5.721-6.044-6-10.2    c0.058-2.756,1.109-5.398,2.96-7.44c2.628-2.868,5.947-5.017,9.64-6.24c3.606-1.006,6.126-4.257,6.2-8v-19.28    c0-4.668-3.772-8.458-8.44-8.48h-0.16h-8.84c-0.477,0.004-0.951-0.077-1.4-0.24v-30.68c0.451-0.149,0.925-0.217,1.4-0.2h9    c4.683,0,8.48-3.797,8.48-8.48v-24.52c-0.001-3.627-2.32-6.848-5.76-8c-3.864-1.211-7.341-3.418-10.08-6.4    c-4.029-4.157-4.029-10.763,0-14.92c2.628-2.868,5.947-5.017,9.64-6.24c3.606-1.006,6.126-4.257,6.2-8v-24.76    c0-4.683-3.797-8.48-8.48-8.48h-9c-0.491,0.009-0.979-0.072-1.44-0.24v-30.6c0.461-0.168,0.949-0.249,1.44-0.24h9    c4.683,0,8.48-3.797,8.48-8.48V87.88c-0.001-3.627-2.32-6.848-5.76-8c-3.887-1.227-7.379-3.463-10.12-6.48    c-1.865-2.037-2.931-4.679-3-7.44c0.279-4.156,2.503-7.937,6-10.2c10.726-7.121,24.674-7.121,35.4,0    c3.497,2.263,5.721,6.044,6,10.2c-0.058,2.756-1.109,5.398-2.96,7.44c-2.628,2.868-5.947,5.017-9.64,6.24    c-3.606,1.006-6.126,4.257-6.2,8v19.04c0,4.683,3.797,8.48,8.48,8.48h9c0.477-0.004,0.951,0.077,1.4,0.24v30.68    c-0.451,0.149-0.925,0.217-1.4,0.2h-9.04c-4.683,0-8.48,3.797-8.48,8.48v24.56c0.001,3.627,2.32,6.848,5.76,8    c3.865,1.209,7.342,3.417,10.08,6.4c4.029,4.157,4.029,10.763,0,14.92c-2.627,2.87-5.946,5.018-9.64,6.24    c-3.606,1.006-6.126,4.257-6.2,8v24.56C206.22,252.123,210.017,255.92,214.7,255.92z" fill="#d6b983"/>
	</g>
</g>
<g>
</g>
<g>
</g>
<g>
</g>
<g>
</g>
<g>
</g>
<g>
</g>
<g>
</g>
<g>
</g>
<g>
</g>
<g>
</g>
<g>
</g>
<g>
</g>
<g>
</g>
<g>
</g>
<g>
</g>
</svg>
