<?xml version="1.0" encoding="iso-8859-1"?>
<!-- Generator: Adobe Illustrator 19.0.0, SVG Export Plug-In . SVG Version: 6.00 Build 0)  -->
<svg xmlns="http://www.w3.org/2000/svg" xmlns:xlink="http://www.w3.org/1999/xlink" version="1.1" id="Capa_1" x="0px" y="0px" viewBox="0 0 402.827 402.827" style="enable-background:new 0 0 402.827 402.827;" xml:space="preserve" width="512px" height="512px">
<g>
	<g>
		<circle cx="64.984" cy="345.34" r="10.72" fill="#d6b983"/>
	</g>
</g>
<g>
	<g>
		<circle cx="333.024" cy="76.1" r="4.8" fill="#d6b983"/>
	</g>
</g>
<g>
	<g>
		<path d="M381.344,57.42l-15.68-1.64c0.736-5.42,0.937-10.9,0.6-16.36c-1.04-12.6-6.2-19.08-15.44-21.12    c-9.24-2.04-17.48,1.96-24.88,11.12c-4.82,6.139-8.851,12.858-12,20c-48.6-10.44-100.36-20.44-151.48-26.8    c-53.48-6.64-106.24-9.2-153.96-4.44c-4.513,0.127-8.135,3.767-8.24,8.28c-3.124,34.253,21.802,64.68,56,68.36l170.68,17.92    c4.636,0.489,8.79-2.873,9.279-7.508c0-0.004,0.001-0.008,0.001-0.012l1.56-14.96l56.68,5.96    c-13.583,26.804-30.903,51.544-51.44,73.48c-39.16,42.64-100.76,90.72-200.36,140h-0.24c-13.948,6.933-22.138,21.784-20.56,37.28    c0.364,5.607,1.719,11.105,4,16.24c2.229,5.206,5.48,9.912,9.56,13.84c10.24,9.72,25.36,13.84,44,5.68    c31.6-13.96,113.68-54.92,183.28-129.56c41.063-43.12,72.431-94.523,92-150.76l21.96,2.32c12.771,1.266,24.279-7.739,26.12-20.44    c0.05-0.532,0.05-1.068,0-1.6C403.539,69.899,394.097,58.766,381.344,57.42z M231.104,72.58c-4.625-0.466-8.757,2.896-9.24,7.52    l-1.56,14.96L58.024,78.02c-22.567-2.455-39.992-20.966-41.08-43.64c44.48-4,93.56-1.16,143.52,5.04c49.96,6.2,100,15.8,147.32,26    l-5.8,14.6L231.104,72.58z M344.824,75.78c-18.48,68-54.4,122.76-94.68,165.96c-67.44,72.32-147.08,112-177.76,125.6    c-11.16,4.92-20,2.88-25.4-2.44c-2.417-2.384-4.335-5.226-5.64-8.36c-1.435-3.307-2.275-6.841-2.48-10.44    c-1.068-8.619,3.27-17.009,10.92-21.12l0.48-0.24c101.76-50.24,164.96-99.68,205.32-143.6c27.334-28.876,49.039-62.6,64-99.44    c0.84-2.16,2.52-6.48,3.36-8.64l4.28-11.24c2.802-7.864,6.854-15.225,12-21.8c3.2-4,5.96-5.88,8-5.4    c1.12,0.24,1.84,2.04,2.16,5.88C349.944,47.9,348.424,59.34,344.824,75.78z M385.619,81.742c-0.201,1.836-1.12,3.517-2.555,4.679    l0.12,0.04c-1.449,1.174-3.306,1.721-5.16,1.52l-18.52-1.96c0.587-2,1.147-4.013,1.68-6.04v-0.4c0.56-2.533,1.067-4.973,1.52-7.32    l16.72,1.76C383.267,74.442,386.041,77.899,385.619,81.742z" fill="#d6b983"/>
	</g>
</g>
<g>
</g>
<g>
</g>
<g>
</g>
<g>
</g>
<g>
</g>
<g>
</g>
<g>
</g>
<g>
</g>
<g>
</g>
<g>
</g>
<g>
</g>
<g>
</g>
<g>
</g>
<g>
</g>
<g>
</g>
</svg>
