<?xml version="1.0" encoding="iso-8859-1"?>
<!-- Generator: Adobe Illustrator 19.0.0, SVG Export Plug-In . SVG Version: 6.00 Build 0)  -->
<svg xmlns="http://www.w3.org/2000/svg" xmlns:xlink="http://www.w3.org/1999/xlink" version="1.1" id="Capa_1" x="0px" y="0px" viewBox="0 0 403.12 403.12" style="enable-background:new 0 0 403.12 403.12;" xml:space="preserve" width="512px" height="512px">
<g>
	<g>
		<path d="M169.442,0H64.722c-17.673,0-32,14.327-32,32v339.12c0,17.673,14.327,32,32,32v-0.2h104.72c17.673,0,32-14.327,32-32V32    C201.442,14.327,187.115,0,169.442,0z M184.322,371.04c-0.044,8.2-6.68,14.836-14.88,14.88H64.722    c-8.193,0-14.854-6.607-14.92-14.8V197.56h134.52V371.04z M184.322,180.44H49.802v-15.92c-0.022-8.24,6.64-14.938,14.88-14.96    c0.013,0,0.027,0,0.04,0h104.72c8.2,0.044,14.836,6.68,14.88,14.88V180.44z M147.602,100.4h0.04v32.32h-57.08V100.4H147.602z     M104.842,83.32v-32.2h50.24v7.72h-13.28c-4.683,0-8.48,3.797-8.48,8.48v16H104.842z M184.322,136.44    c-4.579-2.445-9.69-3.722-14.88-3.72h-4.92v-33.2c-0.007-4.25-1.706-8.323-4.72-11.32c-2.571-2.576-5.943-4.199-9.56-4.6v-8h9.52    c6.782,0,12.28-5.498,12.28-12.28V46.44c0-6.782-5.498-12.28-12.28-12.28h-59.6c-6.782,0-12.28,5.498-12.28,12.28v37.12    c-3.617,0.401-6.989,2.024-9.56,4.6c-2.951,3.039-4.577,7.124-4.52,11.36v33.2h-9.08c-5.19-0.001-10.301,1.277-14.88,3.72    L49.802,32c0.022-8.209,6.671-14.858,14.88-14.88h104.76c8.2,0.044,14.836,6.68,14.88,14.88V136.44z" fill="#d6b983"/>
	</g>
</g>
<g>
	<g>
		<path d="M348.922,280c-16-17.56-40.56-31.2-74.04-35.48l-3.64-0.44c-4.654-0.253-8.632,3.316-8.885,7.97    c-0.155,2.85,1.141,5.585,3.445,7.27c8,6.4,9.92,9.28,8.68,10.88c-3.796,3.609-8.061,6.69-12.68,9.16l-1.6,1    c-11.448,6.916-21.369,16.089-29.16,26.96c-6.793,9.508-10.418,20.915-10.36,32.6c0.6,26.08,16.72,44.84,38.28,54.88    c10.33,4.714,21.46,7.428,32.8,8c11.425,0.677,22.872-0.914,33.68-4.68c24.646-8.204,42.154-30.147,44.68-56v-1.52    C371.993,318.305,364.284,296.267,348.922,280z M353.482,338.84v1.12c-1.875,19.493-15.061,36.05-33.64,42.24    c-8.704,3.028-17.921,4.306-27.12,3.76c-9.183-0.465-18.195-2.664-26.56-6.48c-16-7.44-28-21.12-28.36-39.76    c-0.012-8.192,2.549-16.181,7.32-22.84c6.511-8.964,14.771-16.515,24.28-22.2l1.6-1c6.226-3.402,11.848-7.808,16.64-13.04    c3.915-4.205,5.422-10.113,4-15.68c17.188,4.311,32.787,13.442,44.96,26.32C348.731,304.014,354.869,321.308,353.482,338.84z" fill="#d6b983"/>
	</g>
</g>
<g>
</g>
<g>
</g>
<g>
</g>
<g>
</g>
<g>
</g>
<g>
</g>
<g>
</g>
<g>
</g>
<g>
</g>
<g>
</g>
<g>
</g>
<g>
</g>
<g>
</g>
<g>
</g>
<g>
</g>
</svg>
